<svg width="14" height="14" viewBox="0 0 14 14" fill="none" xmlns="http://www.w3.org/2000/svg">
<g clip-path="url(#clip0_1_4668)">
<path d="M13.0463 8.94515C12.3352 8.38527 11.6828 8.1131 11.052 8.1131C10.1394 8.1131 9.48232 8.6818 8.88742 9.26439C8.81901 9.33146 8.73617 9.36272 8.62678 9.36272C8.12549 9.36277 7.2436 8.74777 6.00561 7.53485C4.54919 6.10799 3.99853 5.20047 4.3688 4.83759C5.37256 3.85461 5.68592 2.86919 4.1491 0.996827C3.59893 0.326023 3.06065 0 2.50352 0C1.75216 0 1.18099 0.588368 0.677068 1.10752C0.589946 1.19726 0.507647 1.28204 0.426957 1.36109C-0.142603 1.919 -0.142311 3.13593 0.427785 4.61654C1.05328 6.24107 2.28829 8.00827 3.90537 9.59266C5.15593 10.8177 6.5166 11.8077 7.84039 12.4723C8.99613 13.0527 10.1172 13.3636 10.997 13.3636C10.9971 13.3636 10.9972 13.3636 10.9974 13.3636C11.548 13.3636 11.9952 13.246 12.2906 13.0067C12.8906 12.5207 14.0074 11.6205 14 10.5513C13.9959 9.97782 13.6751 9.44039 13.0463 8.94515Z" fill="#19AAB9"/>
</g>
<defs>
<clipPath id="clip0_1_4668">
<rect width="14" height="14" fill="white"/>
</clipPath>
</defs>
</svg>
